<svg xmlns="http://www.w3.org/2000/svg" width="1200" height="360" viewBox="0 0 1200 360">
<defs><linearGradient id="bg" x1="0" y1="0" x2="1" y2="1"><stop stop-color="#070b14"/><stop offset="1" stop-color="#151126"/></linearGradient><linearGradient id="g" x1="0" y1="0" x2="1" y2="0"><stop stop-color="#8b5cf6"/><stop offset=".5" stop-color="#22d3ee"/><stop offset="1" stop-color="#60a5fa"/></linearGradient></defs>
<rect width="1200" height="360" rx="28" fill="url(#bg)"/>
<text x="600" y="55" text-anchor="middle" fill="#f8fafc" font-family="Arial,Helvetica,sans-serif" font-size="30" font-weight="800">HOW THE SKILL THINKS</text>
<text x="600" y="84" text-anchor="middle" fill="#94a3b8" font-family="Arial,Helvetica,sans-serif" font-size="17">Cheap evidence first. Expensive search only after the structure has narrowed the problem.</text>
<g font-family="Arial,Helvetica,sans-serif" text-anchor="middle">
<g transform="translate(70 125)"><rect width="170" height="150" rx="20" fill="#0b1220" stroke="#334155"/><circle cx="85" cy="43" r="26" fill="none" stroke="#a78bfa" stroke-width="5"/><path d="M102 60l20 20" stroke="#a78bfa" stroke-width="6" stroke-linecap="round"/><text x="85" y="105" fill="#f8fafc" font-size="17" font-weight="700">INSPECT</text><text x="85" y="128" fill="#94a3b8" font-size="13">geometry + evidence</text></g>
<g transform="translate(290 125)"><rect width="170" height="150" rx="20" fill="#0b1220" stroke="#334155"/><path d="M49 72h72M61 52h48M61 92h48" stroke="#22d3ee" stroke-width="6" stroke-linecap="round"/><circle cx="85" cy="72" r="36" fill="none" stroke="#22d3ee" stroke-width="3" opacity=".5"/><text x="85" y="118" fill="#f8fafc" font-size="17" font-weight="700">MODEL</text><text x="85" y="140" fill="#94a3b8" font-size="13">version + mask + blocks</text></g>
<g transform="translate(510 125)"><rect width="170" height="150" rx="20" fill="#0b1220" stroke="#334155"/><path d="M52 102L77 54l25 48zM99 102l20-34 20 34z" fill="none" stroke="#22d3ee" stroke-width="5"/><text x="85" y="126" fill="#f8fafc" font-size="17" font-weight="700">SOLVE</text><text x="85" y="147" fill="#94a3b8" font-size="13">RS + constraints</text></g>
<g transform="translate(730 125)"><rect width="170" height="150" rx="20" fill="#0b1220" stroke="#334155"/><path d="M52 76l22 22 44-50" fill="none" stroke="#4ade80" stroke-width="7" stroke-linecap="round" stroke-linejoin="round"/><text x="85" y="123" fill="#f8fafc" font-size="17" font-weight="700">VALIDATE</text><text x="85" y="145" fill="#94a3b8" font-size="13">re-encode + compare</text></g>
<g transform="translate(950 125)"><rect width="170" height="150" rx="20" fill="#0b1220" stroke="#334155"/><rect x="60" y="42" width="50" height="50" rx="8" fill="none" stroke="#60a5fa" stroke-width="5"/><path d="M72 68l10 10 18-22" fill="none" stroke="#60a5fa" stroke-width="5" stroke-linecap="round"/><text x="85" y="123" fill="#f8fafc" font-size="17" font-weight="700">PROVE</text><text x="85" y="145" fill="#94a3b8" font-size="13">unique / ambiguous</text></g>
</g>
<path d="M240 200H290M460 200H510M680 200H730M900 200H950" stroke="url(#g)" stroke-width="5"/>
</svg>